<svg xmlns="http://www.w3.org/2000/svg" width="1200" height="630" viewBox="0 0 1200 630">
  <rect width="1200" height="630" fill="#f0fdf4"/>
  <rect x="0" y="0" width="1200" height="6" fill="#059669"/>

  <!-- Logo mark -->
  <rect x="80" y="80" width="56" height="56" rx="14" fill="#059669"/>
  <polygon points="108,96 120,112 96,112" fill="white"/>
  <rect x="96" y="110" width="24" height="16" rx="3" fill="white"/>

  <!-- BillingBee wordmark -->
  <text x="152" y="122" font-family="system-ui, -apple-system, sans-serif" font-size="36" font-weight="800" fill="#111827">BillingBee</text>

  <!-- Headline -->
  <text x="80" y="260" font-family="system-ui, -apple-system, sans-serif" font-size="72" font-weight="900" fill="#111827">AI-Powered</text>
  <text x="80" y="350" font-family="system-ui, -apple-system, sans-serif" font-size="72" font-weight="900" fill="#059669">Invoicing for India</text>

  <!-- Subheading -->
  <text x="80" y="420" font-family="system-ui, -apple-system, sans-serif" font-size="28" fill="#6b7280">Create GST invoices with AI. Get paid with Razorpay &amp; Stripe.</text>

  <!-- Badges -->
  <rect x="80" y="470" width="220" height="44" rx="22" fill="#059669"/>
  <text x="190" y="498" font-family="system-ui, -apple-system, sans-serif" font-size="18" font-weight="700" fill="white" text-anchor="middle">Free to start</text>

  <rect x="316" y="470" width="260" height="44" rx="22" fill="white" stroke="#d1fae5" stroke-width="2"/>
  <text x="446" y="498" font-family="system-ui, -apple-system, sans-serif" font-size="18" font-weight="600" fill="#059669" text-anchor="middle">GST-compliant PDFs</text>

  <rect x="592" y="470" width="220" height="44" rx="22" fill="white" stroke="#d1fae5" stroke-width="2"/>
  <text x="702" y="498" font-family="system-ui, -apple-system, sans-serif" font-size="18" font-weight="600" fill="#059669" text-anchor="middle">Razorpay built-in</text>

  <!-- URL -->
  <text x="80" y="585" font-family="system-ui, -apple-system, sans-serif" font-size="22" fill="#9ca3af">billingbee.co</text>

  <!-- Right side decoration -->
  <rect x="900" y="120" width="220" height="300" rx="16" fill="white" opacity="0.8"/>
  <rect x="920" y="145" width="180" height="24" rx="4" fill="#d1fae5"/>
  <rect x="920" y="180" width="120" height="14" rx="4" fill="#f3f4f6"/>
  <rect x="920" y="204" width="100" height="14" rx="4" fill="#f3f4f6"/>
  <rect x="920" y="240" width="180" height="1" fill="#e5e7eb"/>
  <rect x="920" y="260" width="80" height="14" rx="4" fill="#f3f4f6"/>
  <text x="1010" y="273" font-family="system-ui" font-size="12" fill="#9ca3af" text-anchor="middle">₹25,000</text>
  <rect x="920" y="284" width="80" height="14" rx="4" fill="#f3f4f6"/>
  <rect x="920" y="320" width="180" height="40" rx="8" fill="#059669"/>
  <text x="1010" y="346" font-family="system-ui" font-size="14" font-weight="700" fill="white" text-anchor="middle">Pay Now</text>
  <rect x="920" y="375" width="180" height="24" rx="4" fill="#ecfdf5"/>
  <text x="1010" y="392" font-family="system-ui" font-size="11" fill="#059669" text-anchor="middle">✓ GST Invoice #INV-2024-001</text>
</svg>
